<?xml version="1.0" encoding="UTF-8" standalone="no" ?>
<!DOCTYPE svg PUBLIC "-//W3C//DTD SVG 1.1//EN" "http://www.w3.org/Graphics/SVG/1.1/DTD/svg11.dtd">
<svg xmlns="http://www.w3.org/2000/svg" xmlns:xlink="http://www.w3.org/1999/xlink" version="1.1" width="50" height="50" viewBox="0 0 50 50" xml:space="preserve">
<desc>Created with Fabric.js 3.6.3</desc>
<defs>
</defs>
<g transform="matrix(0.13 0 0 0.13 41.74 49.81)"  >
<g style=""   >
		<g transform="matrix(1 0 0 1 -472.7 -33.15)" id="Layer_1"  >
<line style="stroke: rgb(27,20,100); stroke-width: 0.75; stroke-dasharray: none; stroke-linecap: butt; stroke-dashoffset: 0; stroke-linejoin: miter; stroke-miterlimit: 10; fill: none; fill-rule: nonzero; opacity: 1;"  x1="0" y1="-522.95" x2="0" y2="522.95" />
</g>
		<g transform="matrix(1 0 0 1 -450.1 -32.9)" id="Layer_1"  >
<line style="stroke: rgb(27,20,100); stroke-width: 0.75; stroke-dasharray: none; stroke-linecap: butt; stroke-dashoffset: 0; stroke-linejoin: miter; stroke-miterlimit: 10; fill: none; fill-rule: nonzero; opacity: 1;"  x1="0" y1="-523" x2="0" y2="523" />
</g>
		<g transform="matrix(1 0 0 1 -427.6 -32.7)" id="Layer_1"  >
<line style="stroke: rgb(27,20,100); stroke-width: 0.75; stroke-dasharray: none; stroke-linecap: butt; stroke-dashoffset: 0; stroke-linejoin: miter; stroke-miterlimit: 10; fill: none; fill-rule: nonzero; opacity: 1;"  x1="0" y1="-523" x2="0" y2="523" />
</g>
		<g transform="matrix(1 0 0 1 -405 -32.45)" id="Layer_1"  >
<line style="stroke: rgb(27,20,100); stroke-width: 0.75; stroke-dasharray: none; stroke-linecap: butt; stroke-dashoffset: 0; stroke-linejoin: miter; stroke-miterlimit: 10; fill: none; fill-rule: nonzero; opacity: 1;"  x1="0" y1="-522.95" x2="0" y2="522.95" />
</g>
		<g transform="matrix(1 0 0 1 -382.5 -32.15)" id="Layer_1"  >
<line style="stroke: rgb(27,20,100); stroke-width: 0.75; stroke-dasharray: none; stroke-linecap: butt; stroke-dashoffset: 0; stroke-linejoin: miter; stroke-miterlimit: 10; fill: none; fill-rule: nonzero; opacity: 1;"  x1="0" y1="-522.95" x2="0" y2="522.95" />
</g>
		<g transform="matrix(1 0 0 1 -359.9 -31.95)" id="Layer_1"  >
<line style="stroke: rgb(27,20,100); stroke-width: 0.75; stroke-dasharray: none; stroke-linecap: butt; stroke-dashoffset: 0; stroke-linejoin: miter; stroke-miterlimit: 10; fill: none; fill-rule: nonzero; opacity: 1;"  x1="0" y1="-522.95" x2="0" y2="522.95" />
</g>
		<g transform="matrix(1 0 0 1 -337.4 -31.75)" id="Layer_1"  >
<line style="stroke: rgb(27,20,100); stroke-width: 0.75; stroke-dasharray: none; stroke-linecap: butt; stroke-dashoffset: 0; stroke-linejoin: miter; stroke-miterlimit: 10; fill: none; fill-rule: nonzero; opacity: 1;"  x1="0" y1="-522.95" x2="0" y2="522.95" />
</g>
		<g transform="matrix(1 0 0 1 -314.9 -31.45)" id="Layer_1"  >
<line style="stroke: rgb(27,20,100); stroke-width: 0.75; stroke-dasharray: none; stroke-linecap: butt; stroke-dashoffset: 0; stroke-linejoin: miter; stroke-miterlimit: 10; fill: none; fill-rule: nonzero; opacity: 1;"  x1="0" y1="-522.95" x2="0" y2="522.95" />
</g>
		<g transform="matrix(1 0 0 1 -292.3 -31.25)" id="Layer_1"  >
<line style="stroke: rgb(27,20,100); stroke-width: 0.75; stroke-dasharray: none; stroke-linecap: butt; stroke-dashoffset: 0; stroke-linejoin: miter; stroke-miterlimit: 10; fill: none; fill-rule: nonzero; opacity: 1;"  x1="0" y1="-522.95" x2="0" y2="522.95" />
</g>
		<g transform="matrix(1 0 0 1 -269.8 -31)" id="Layer_1"  >
<line style="stroke: rgb(27,20,100); stroke-width: 0.75; stroke-dasharray: none; stroke-linecap: butt; stroke-dashoffset: 0; stroke-linejoin: miter; stroke-miterlimit: 10; fill: none; fill-rule: nonzero; opacity: 1;"  x1="0" y1="-523" x2="0" y2="523" />
</g>
		<g transform="matrix(1 0 0 1 -247.3 -30.7)" id="Layer_1"  >
<line style="stroke: rgb(27,20,100); stroke-width: 0.75; stroke-dasharray: none; stroke-linecap: butt; stroke-dashoffset: 0; stroke-linejoin: miter; stroke-miterlimit: 10; fill: none; fill-rule: nonzero; opacity: 1;"  x1="0" y1="-523" x2="0" y2="523" />
</g>
		<g transform="matrix(1 0 0 1 -224.7 -30.5)" id="Layer_1"  >
<line style="stroke: rgb(27,20,100); stroke-width: 0.75; stroke-dasharray: none; stroke-linecap: butt; stroke-dashoffset: 0; stroke-linejoin: miter; stroke-miterlimit: 10; fill: none; fill-rule: nonzero; opacity: 1;"  x1="0" y1="-523" x2="0" y2="523" />
</g>
		<g transform="matrix(1 0 0 1 -202.2 -30.3)" id="Layer_1"  >
<line style="stroke: rgb(27,20,100); stroke-width: 0.75; stroke-dasharray: none; stroke-linecap: butt; stroke-dashoffset: 0; stroke-linejoin: miter; stroke-miterlimit: 10; fill: none; fill-rule: nonzero; opacity: 1;"  x1="0" y1="-523" x2="0" y2="523" />
</g>
		<g transform="matrix(1 0 0 1 -179.6 -30)" id="Layer_1"  >
<line style="stroke: rgb(27,20,100); stroke-width: 0.75; stroke-dasharray: none; stroke-linecap: butt; stroke-dashoffset: 0; stroke-linejoin: miter; stroke-miterlimit: 10; fill: none; fill-rule: nonzero; opacity: 1;"  x1="0" y1="-523" x2="0" y2="523" />
</g>
		<g transform="matrix(1 0 0 1 -157.1 -29.8)" id="Layer_1"  >
<line style="stroke: rgb(27,20,100); stroke-width: 0.75; stroke-dasharray: none; stroke-linecap: butt; stroke-dashoffset: 0; stroke-linejoin: miter; stroke-miterlimit: 10; fill: none; fill-rule: nonzero; opacity: 1;"  x1="0" y1="-523" x2="0" y2="523" />
</g>
		<g transform="matrix(1 0 0 1 -134.5 -29.55)" id="Layer_1"  >
<line style="stroke: rgb(27,20,100); stroke-width: 0.75; stroke-dasharray: none; stroke-linecap: butt; stroke-dashoffset: 0; stroke-linejoin: miter; stroke-miterlimit: 10; fill: none; fill-rule: nonzero; opacity: 1;"  x1="0" y1="-522.95" x2="0" y2="522.95" />
</g>
		<g transform="matrix(1 0 0 1 -112 -29.3)" id="Layer_1"  >
<line style="stroke: rgb(27,20,100); stroke-width: 0.75; stroke-dasharray: none; stroke-linecap: butt; stroke-dashoffset: 0; stroke-linejoin: miter; stroke-miterlimit: 10; fill: none; fill-rule: nonzero; opacity: 1;"  x1="0" y1="-523" x2="0" y2="523" />
</g>
		<g transform="matrix(1 0 0 1 -89.5 -29.05)" id="Layer_1"  >
<line style="stroke: rgb(27,20,100); stroke-width: 0.75; stroke-dasharray: none; stroke-linecap: butt; stroke-dashoffset: 0; stroke-linejoin: miter; stroke-miterlimit: 10; fill: none; fill-rule: nonzero; opacity: 1;"  x1="0" y1="-522.95" x2="0" y2="522.95" />
</g>
		<g transform="matrix(1 0 0 1 -66.9 -28.85)" id="Layer_1"  >
<line style="stroke: rgb(27,20,100); stroke-width: 0.75; stroke-dasharray: none; stroke-linecap: butt; stroke-dashoffset: 0; stroke-linejoin: miter; stroke-miterlimit: 10; fill: none; fill-rule: nonzero; opacity: 1;"  x1="0" y1="-522.95" x2="0" y2="522.95" />
</g>
		<g transform="matrix(1 0 0 1 -44.4 -28.55)" id="Layer_1"  >
<line style="stroke: rgb(27,20,100); stroke-width: 0.75; stroke-dasharray: none; stroke-linecap: butt; stroke-dashoffset: 0; stroke-linejoin: miter; stroke-miterlimit: 10; fill: none; fill-rule: nonzero; opacity: 1;"  x1="0" y1="-522.95" x2="0" y2="522.95" />
</g>
		<g transform="matrix(1 0 0 1 -21.9 -28.35)" id="Layer_1"  >
<line style="stroke: rgb(27,20,100); stroke-width: 0.75; stroke-dasharray: none; stroke-linecap: butt; stroke-dashoffset: 0; stroke-linejoin: miter; stroke-miterlimit: 10; fill: none; fill-rule: nonzero; opacity: 1;"  x1="0" y1="-522.95" x2="0" y2="522.95" />
</g>
		<g transform="matrix(1 0 0 1 0.7 -28.1)" id="Layer_1"  >
<line style="stroke: rgb(27,20,100); stroke-width: 0.75; stroke-dasharray: none; stroke-linecap: butt; stroke-dashoffset: 0; stroke-linejoin: miter; stroke-miterlimit: 10; fill: none; fill-rule: nonzero; opacity: 1;"  x1="0" y1="-523" x2="0" y2="523" />
</g>
		<g transform="matrix(1 0 0 1 23.2 -27.85)" id="Layer_1"  >
<line style="stroke: rgb(27,20,100); stroke-width: 0.75; stroke-dasharray: none; stroke-linecap: butt; stroke-dashoffset: 0; stroke-linejoin: miter; stroke-miterlimit: 10; fill: none; fill-rule: nonzero; opacity: 1;"  x1="0" y1="-522.95" x2="0" y2="522.95" />
</g>
		<g transform="matrix(1 0 0 1 45.8 -27.6)" id="Layer_1"  >
<line style="stroke: rgb(27,20,100); stroke-width: 0.75; stroke-dasharray: none; stroke-linecap: butt; stroke-dashoffset: 0; stroke-linejoin: miter; stroke-miterlimit: 10; fill: none; fill-rule: nonzero; opacity: 1;"  x1="0" y1="-523" x2="0" y2="523" />
</g>
		<g transform="matrix(1 0 0 1 68.3 -27.4)" id="Layer_1"  >
<line style="stroke: rgb(27,20,100); stroke-width: 0.75; stroke-dasharray: none; stroke-linecap: butt; stroke-dashoffset: 0; stroke-linejoin: miter; stroke-miterlimit: 10; fill: none; fill-rule: nonzero; opacity: 1;"  x1="0" y1="-523" x2="0" y2="523" />
</g>
		<g transform="matrix(1 0 0 1 90.9 -27.15)" id="Layer_1"  >
<line style="stroke: rgb(27,20,100); stroke-width: 0.75; stroke-dasharray: none; stroke-linecap: butt; stroke-dashoffset: 0; stroke-linejoin: miter; stroke-miterlimit: 10; fill: none; fill-rule: nonzero; opacity: 1;"  x1="0" y1="-522.95" x2="0" y2="522.95" />
</g>
		<g transform="matrix(1 0 0 1 113.4 -26.9)" id="Layer_1"  >
<line style="stroke: rgb(27,20,100); stroke-width: 0.75; stroke-dasharray: none; stroke-linecap: butt; stroke-dashoffset: 0; stroke-linejoin: miter; stroke-miterlimit: 10; fill: none; fill-rule: nonzero; opacity: 1;"  x1="0" y1="-523" x2="0" y2="523" />
</g>
		<g transform="matrix(1 0 0 1 135.9 -26.7)" id="Layer_1"  >
<line style="stroke: rgb(27,20,100); stroke-width: 0.75; stroke-dasharray: none; stroke-linecap: butt; stroke-dashoffset: 0; stroke-linejoin: miter; stroke-miterlimit: 10; fill: none; fill-rule: nonzero; opacity: 1;"  x1="0" y1="-523" x2="0" y2="523" />
</g>
		<g transform="matrix(1 0 0 1 158.5 -26.45)" id="Layer_1"  >
<line style="stroke: rgb(27,20,100); stroke-width: 0.75; stroke-dasharray: none; stroke-linecap: butt; stroke-dashoffset: 0; stroke-linejoin: miter; stroke-miterlimit: 10; fill: none; fill-rule: nonzero; opacity: 1;"  x1="0" y1="-522.95" x2="0" y2="522.95" />
</g>
		<g transform="matrix(1 0 0 1 181 -26.2)" id="Layer_1"  >
<line style="stroke: rgb(27,20,100); stroke-width: 0.75; stroke-dasharray: none; stroke-linecap: butt; stroke-dashoffset: 0; stroke-linejoin: miter; stroke-miterlimit: 10; fill: none; fill-rule: nonzero; opacity: 1;"  x1="0" y1="-523" x2="0" y2="523" />
</g>
		<g transform="matrix(1 0 0 1 203.5 -25.95)" id="Layer_1"  >
<line style="stroke: rgb(27,20,100); stroke-width: 0.75; stroke-dasharray: none; stroke-linecap: butt; stroke-dashoffset: 0; stroke-linejoin: miter; stroke-miterlimit: 10; fill: none; fill-rule: nonzero; opacity: 1;"  x1="0" y1="-522.95" x2="0" y2="522.95" />
</g>
		<g transform="matrix(1 0 0 1 226 -25.75)" id="Layer_1"  >
<line style="stroke: rgb(27,20,100); stroke-width: 0.75; stroke-dasharray: none; stroke-linecap: butt; stroke-dashoffset: 0; stroke-linejoin: miter; stroke-miterlimit: 10; fill: none; fill-rule: nonzero; opacity: 1;"  x1="0" y1="-522.95" x2="0" y2="522.95" />
</g>
		<g transform="matrix(1 0 0 1 248.6 -25.45)" id="Layer_1"  >
<line style="stroke: rgb(27,20,100); stroke-width: 0.75; stroke-dasharray: none; stroke-linecap: butt; stroke-dashoffset: 0; stroke-linejoin: miter; stroke-miterlimit: 10; fill: none; fill-rule: nonzero; opacity: 1;"  x1="0" y1="-522.95" x2="0" y2="522.95" />
</g>
		<g transform="matrix(1 0 0 1 271.2 -25.25)" id="Layer_1"  >
<line style="stroke: rgb(27,20,100); stroke-width: 0.75; stroke-dasharray: none; stroke-linecap: butt; stroke-dashoffset: 0; stroke-linejoin: miter; stroke-miterlimit: 10; fill: none; fill-rule: nonzero; opacity: 1;"  x1="0" y1="-522.95" x2="0" y2="522.95" />
</g>
		<g transform="matrix(1 0 0 1 293.7 -25)" id="Layer_1"  >
<line style="stroke: rgb(27,20,100); stroke-width: 0.75; stroke-dasharray: none; stroke-linecap: butt; stroke-dashoffset: 0; stroke-linejoin: miter; stroke-miterlimit: 10; fill: none; fill-rule: nonzero; opacity: 1;"  x1="0" y1="-523" x2="0" y2="523" />
</g>
		<g transform="matrix(1 0 0 1 316.3 -24.75)" id="Layer_1"  >
<line style="stroke: rgb(27,20,100); stroke-width: 0.75; stroke-dasharray: none; stroke-linecap: butt; stroke-dashoffset: 0; stroke-linejoin: miter; stroke-miterlimit: 10; fill: none; fill-rule: nonzero; opacity: 1;"  x1="0" y1="-522.95" x2="0" y2="522.95" />
</g>
		<g transform="matrix(1 0 0 1 338.8 -24.5)" id="Layer_1"  >
<line style="stroke: rgb(27,20,100); stroke-width: 0.75; stroke-dasharray: none; stroke-linecap: butt; stroke-dashoffset: 0; stroke-linejoin: miter; stroke-miterlimit: 10; fill: none; fill-rule: nonzero; opacity: 1;"  x1="0" y1="-523" x2="0" y2="523" />
</g>
		<g transform="matrix(1 0 0 1 361.3 -24.3)" id="Layer_1"  >
<line style="stroke: rgb(27,20,100); stroke-width: 0.75; stroke-dasharray: none; stroke-linecap: butt; stroke-dashoffset: 0; stroke-linejoin: miter; stroke-miterlimit: 10; fill: none; fill-rule: nonzero; opacity: 1;"  x1="0" y1="-523" x2="0" y2="523" />
</g>
		<g transform="matrix(1 0 0 1 383.9 -24)" id="Layer_1"  >
<line style="stroke: rgb(27,20,100); stroke-width: 0.75; stroke-dasharray: none; stroke-linecap: butt; stroke-dashoffset: 0; stroke-linejoin: miter; stroke-miterlimit: 10; fill: none; fill-rule: nonzero; opacity: 1;"  x1="0" y1="-523" x2="0" y2="523" />
</g>
		<g transform="matrix(1 0 0 1 406.4 -23.8)" id="Layer_1"  >
<line style="stroke: rgb(27,20,100); stroke-width: 0.75; stroke-dasharray: none; stroke-linecap: butt; stroke-dashoffset: 0; stroke-linejoin: miter; stroke-miterlimit: 10; fill: none; fill-rule: nonzero; opacity: 1;"  x1="0" y1="-523" x2="0" y2="523" />
</g>
		<g transform="matrix(1 0 0 1 428.9 -23.6)" id="Layer_1"  >
<line style="stroke: rgb(27,20,100); stroke-width: 0.75; stroke-dasharray: none; stroke-linecap: butt; stroke-dashoffset: 0; stroke-linejoin: miter; stroke-miterlimit: 10; fill: none; fill-rule: nonzero; opacity: 1;"  x1="0" y1="-523" x2="0" y2="523" />
</g>
		<g transform="matrix(1 0 0 1 451.4 -23.3)" id="Layer_1"  >
<line style="stroke: rgb(27,20,100); stroke-width: 0.75; stroke-dasharray: none; stroke-linecap: butt; stroke-dashoffset: 0; stroke-linejoin: miter; stroke-miterlimit: 10; fill: none; fill-rule: nonzero; opacity: 1;"  x1="0" y1="-523" x2="0" y2="523" />
</g>
		<g transform="matrix(1 0 0 1 -240.65 393.9)" id="Layer_1"  >
<line style="stroke: rgb(27,20,100); stroke-width: 0.75; stroke-dasharray: none; stroke-linecap: butt; stroke-dashoffset: 0; stroke-linejoin: miter; stroke-miterlimit: 10; fill: none; fill-rule: nonzero; opacity: 1;"  x1="-567.35" y1="-327.6" x2="567.35" y2="327.6" />
</g>
		<g transform="matrix(1 0 0 1 -229.1 374.5)" id="Layer_1"  >
<line style="stroke: rgb(27,20,100); stroke-width: 0.75; stroke-dasharray: none; stroke-linecap: butt; stroke-dashoffset: 0; stroke-linejoin: miter; stroke-miterlimit: 10; fill: none; fill-rule: nonzero; opacity: 1;"  x1="-567.4" y1="-327.6" x2="567.4" y2="327.6" />
</g>
		<g transform="matrix(1 0 0 1 -217.6 355.1)" id="Layer_1"  >
<line style="stroke: rgb(27,20,100); stroke-width: 0.75; stroke-dasharray: none; stroke-linecap: butt; stroke-dashoffset: 0; stroke-linejoin: miter; stroke-miterlimit: 10; fill: none; fill-rule: nonzero; opacity: 1;"  x1="-567.4" y1="-327.6" x2="567.4" y2="327.6" />
</g>
		<g transform="matrix(1 0 0 1 -206 335.8)" id="Layer_1"  >
<line style="stroke: rgb(27,20,100); stroke-width: 0.75; stroke-dasharray: none; stroke-linecap: butt; stroke-dashoffset: 0; stroke-linejoin: miter; stroke-miterlimit: 10; fill: none; fill-rule: nonzero; opacity: 1;"  x1="-567.4" y1="-327.6" x2="567.4" y2="327.6" />
</g>
		<g transform="matrix(1 0 0 1 -194.5 316.4)" id="Layer_1"  >
<line style="stroke: rgb(27,20,100); stroke-width: 0.75; stroke-dasharray: none; stroke-linecap: butt; stroke-dashoffset: 0; stroke-linejoin: miter; stroke-miterlimit: 10; fill: none; fill-rule: nonzero; opacity: 1;"  x1="-567.4" y1="-327.6" x2="567.4" y2="327.6" />
</g>
		<g transform="matrix(1 0 0 1 -183 297)" id="Layer_1"  >
<line style="stroke: rgb(27,20,100); stroke-width: 0.75; stroke-dasharray: none; stroke-linecap: butt; stroke-dashoffset: 0; stroke-linejoin: miter; stroke-miterlimit: 10; fill: none; fill-rule: nonzero; opacity: 1;"  x1="-567.4" y1="-327.6" x2="567.4" y2="327.6" />
</g>
		<g transform="matrix(1 0 0 1 -171.5 277.7)" id="Layer_1"  >
<line style="stroke: rgb(27,20,100); stroke-width: 0.75; stroke-dasharray: none; stroke-linecap: butt; stroke-dashoffset: 0; stroke-linejoin: miter; stroke-miterlimit: 10; fill: none; fill-rule: nonzero; opacity: 1;"  x1="-567.4" y1="-327.59999999999997" x2="567.4" y2="327.59999999999997" />
</g>
		<g transform="matrix(1 0 0 1 -159.9 258.3)" id="Layer_1"  >
<line style="stroke: rgb(27,20,100); stroke-width: 0.75; stroke-dasharray: none; stroke-linecap: butt; stroke-dashoffset: 0; stroke-linejoin: miter; stroke-miterlimit: 10; fill: none; fill-rule: nonzero; opacity: 1;"  x1="-567.4" y1="-327.6" x2="567.4" y2="327.6" />
</g>
		<g transform="matrix(1 0 0 1 -148.4 238.9)" id="Layer_1"  >
<line style="stroke: rgb(27,20,100); stroke-width: 0.75; stroke-dasharray: none; stroke-linecap: butt; stroke-dashoffset: 0; stroke-linejoin: miter; stroke-miterlimit: 10; fill: none; fill-rule: nonzero; opacity: 1;"  x1="-567.4" y1="-327.6" x2="567.4" y2="327.6" />
</g>
		<g transform="matrix(1 0 0 1 -136.9 219.55)" id="Layer_1"  >
<line style="stroke: rgb(27,20,100); stroke-width: 0.75; stroke-dasharray: none; stroke-linecap: butt; stroke-dashoffset: 0; stroke-linejoin: miter; stroke-miterlimit: 10; fill: none; fill-rule: nonzero; opacity: 1;"  x1="-567.4" y1="-327.55" x2="567.4" y2="327.55" />
</g>
		<g transform="matrix(1 0 0 1 -125.3 200.2)" id="Layer_1"  >
<line style="stroke: rgb(27,20,100); stroke-width: 0.75; stroke-dasharray: none; stroke-linecap: butt; stroke-dashoffset: 0; stroke-linejoin: miter; stroke-miterlimit: 10; fill: none; fill-rule: nonzero; opacity: 1;"  x1="-567.4" y1="-327.59999999999997" x2="567.4" y2="327.59999999999997" />
</g>
		<g transform="matrix(1 0 0 1 -113.8 180.8)" id="Layer_1"  >
<line style="stroke: rgb(27,20,100); stroke-width: 0.75; stroke-dasharray: none; stroke-linecap: butt; stroke-dashoffset: 0; stroke-linejoin: miter; stroke-miterlimit: 10; fill: none; fill-rule: nonzero; opacity: 1;"  x1="-567.4" y1="-327.59999999999997" x2="567.4" y2="327.59999999999997" />
</g>
		<g transform="matrix(1 0 0 1 -102.2 161.45)" id="Layer_1"  >
<line style="stroke: rgb(27,20,100); stroke-width: 0.75; stroke-dasharray: none; stroke-linecap: butt; stroke-dashoffset: 0; stroke-linejoin: miter; stroke-miterlimit: 10; fill: none; fill-rule: nonzero; opacity: 1;"  x1="-567.4000000000001" y1="-327.55" x2="567.4000000000001" y2="327.55" />
</g>
		<g transform="matrix(1 0 0 1 -90.8 142.1)" id="Layer_1"  >
<line style="stroke: rgb(27,20,100); stroke-width: 0.75; stroke-dasharray: none; stroke-linecap: butt; stroke-dashoffset: 0; stroke-linejoin: miter; stroke-miterlimit: 10; fill: none; fill-rule: nonzero; opacity: 1;"  x1="-567.4" y1="-327.6" x2="567.4" y2="327.6" />
</g>
		<g transform="matrix(1 0 0 1 -79.2 122.7)" id="Layer_1"  >
<line style="stroke: rgb(27,20,100); stroke-width: 0.75; stroke-dasharray: none; stroke-linecap: butt; stroke-dashoffset: 0; stroke-linejoin: miter; stroke-miterlimit: 10; fill: none; fill-rule: nonzero; opacity: 1;"  x1="-567.4" y1="-327.59999999999997" x2="567.4" y2="327.59999999999997" />
</g>
		<g transform="matrix(1 0 0 1 -67.7 103.35)" id="Layer_1"  >
<line style="stroke: rgb(27,20,100); stroke-width: 0.75; stroke-dasharray: none; stroke-linecap: butt; stroke-dashoffset: 0; stroke-linejoin: miter; stroke-miterlimit: 10; fill: none; fill-rule: nonzero; opacity: 1;"  x1="-567.4" y1="-327.55" x2="567.4" y2="327.55" />
</g>
		<g transform="matrix(1 0 0 1 -56.1 84)" id="Layer_1"  >
<line style="stroke: rgb(27,20,100); stroke-width: 0.75; stroke-dasharray: none; stroke-linecap: butt; stroke-dashoffset: 0; stroke-linejoin: miter; stroke-miterlimit: 10; fill: none; fill-rule: nonzero; opacity: 1;"  x1="-567.4" y1="-327.6" x2="567.4" y2="327.6" />
</g>
		<g transform="matrix(1 0 0 1 -44.6 64.55)" id="Layer_1"  >
<line style="stroke: rgb(27,20,100); stroke-width: 0.75; stroke-dasharray: none; stroke-linecap: butt; stroke-dashoffset: 0; stroke-linejoin: miter; stroke-miterlimit: 10; fill: none; fill-rule: nonzero; opacity: 1;"  x1="-567.4" y1="-327.55" x2="567.4" y2="327.55" />
</g>
		<g transform="matrix(1 0 0 1 -33.1 45.2)" id="Layer_1"  >
<line style="stroke: rgb(27,20,100); stroke-width: 0.75; stroke-dasharray: none; stroke-linecap: butt; stroke-dashoffset: 0; stroke-linejoin: miter; stroke-miterlimit: 10; fill: none; fill-rule: nonzero; opacity: 1;"  x1="-567.4" y1="-327.59999999999997" x2="567.4" y2="327.59999999999997" />
</g>
		<g transform="matrix(1 0 0 1 -21.5 25.9)" id="Layer_1"  >
<line style="stroke: rgb(27,20,100); stroke-width: 0.75; stroke-dasharray: none; stroke-linecap: butt; stroke-dashoffset: 0; stroke-linejoin: miter; stroke-miterlimit: 10; fill: none; fill-rule: nonzero; opacity: 1;"  x1="-567.4" y1="-327.6" x2="567.4" y2="327.6" />
</g>
		<g transform="matrix(1 0 0 1 -10 6.45)" id="Layer_1"  >
<line style="stroke: rgb(27,20,100); stroke-width: 0.75; stroke-dasharray: none; stroke-linecap: butt; stroke-dashoffset: 0; stroke-linejoin: miter; stroke-miterlimit: 10; fill: none; fill-rule: nonzero; opacity: 1;"  x1="-567.4" y1="-327.55" x2="567.4" y2="327.55" />
</g>
		<g transform="matrix(1 0 0 1 1.5 -12.9)" id="Layer_1"  >
<line style="stroke: rgb(27,20,100); stroke-width: 0.75; stroke-dasharray: none; stroke-linecap: butt; stroke-dashoffset: 0; stroke-linejoin: miter; stroke-miterlimit: 10; fill: none; fill-rule: nonzero; opacity: 1;"  x1="-567.4" y1="-327.6" x2="567.4" y2="327.6" />
</g>
		<g transform="matrix(1 0 0 1 13 -32.2)" id="Layer_1"  >
<line style="stroke: rgb(27,20,100); stroke-width: 0.75; stroke-dasharray: none; stroke-linecap: butt; stroke-dashoffset: 0; stroke-linejoin: miter; stroke-miterlimit: 10; fill: none; fill-rule: nonzero; opacity: 1;"  x1="-567.4" y1="-327.59999999999997" x2="567.4" y2="327.59999999999997" />
</g>
		<g transform="matrix(1 0 0 1 24.6 -51.65)" id="Layer_1"  >
<line style="stroke: rgb(27,20,100); stroke-width: 0.75; stroke-dasharray: none; stroke-linecap: butt; stroke-dashoffset: 0; stroke-linejoin: miter; stroke-miterlimit: 10; fill: none; fill-rule: nonzero; opacity: 1;"  x1="-567.4" y1="-327.55" x2="567.4" y2="327.55" />
</g>
		<g transform="matrix(1 0 0 1 36.1 -71)" id="Layer_1"  >
<line style="stroke: rgb(27,20,100); stroke-width: 0.75; stroke-dasharray: none; stroke-linecap: butt; stroke-dashoffset: 0; stroke-linejoin: miter; stroke-miterlimit: 10; fill: none; fill-rule: nonzero; opacity: 1;"  x1="-567.4" y1="-327.6" x2="567.4" y2="327.6" />
</g>
		<g transform="matrix(1 0 0 1 47.6 -90.35)" id="Layer_1"  >
<line style="stroke: rgb(27,20,100); stroke-width: 0.75; stroke-dasharray: none; stroke-linecap: butt; stroke-dashoffset: 0; stroke-linejoin: miter; stroke-miterlimit: 10; fill: none; fill-rule: nonzero; opacity: 1;"  x1="-567.4" y1="-327.55" x2="567.4" y2="327.55" />
</g>
		<g transform="matrix(1 0 0 1 59.1 -109.8)" id="Layer_1"  >
<line style="stroke: rgb(27,20,100); stroke-width: 0.75; stroke-dasharray: none; stroke-linecap: butt; stroke-dashoffset: 0; stroke-linejoin: miter; stroke-miterlimit: 10; fill: none; fill-rule: nonzero; opacity: 1;"  x1="-567.4" y1="-327.6" x2="567.4" y2="327.6" />
</g>
		<g transform="matrix(1 0 0 1 70.7 -129.1)" id="Layer_1"  >
<line style="stroke: rgb(27,20,100); stroke-width: 0.75; stroke-dasharray: none; stroke-linecap: butt; stroke-dashoffset: 0; stroke-linejoin: miter; stroke-miterlimit: 10; fill: none; fill-rule: nonzero; opacity: 1;"  x1="-567.4" y1="-327.6" x2="567.4" y2="327.6" />
</g>
		<g transform="matrix(1 0 0 1 82.2 -148.45)" id="Layer_1"  >
<line style="stroke: rgb(27,20,100); stroke-width: 0.75; stroke-dasharray: none; stroke-linecap: butt; stroke-dashoffset: 0; stroke-linejoin: miter; stroke-miterlimit: 10; fill: none; fill-rule: nonzero; opacity: 1;"  x1="-567.4" y1="-327.55" x2="567.4" y2="327.55" />
</g>
		<g transform="matrix(1 0 0 1 93.7 -167.9)" id="Layer_1"  >
<line style="stroke: rgb(27,20,100); stroke-width: 0.75; stroke-dasharray: none; stroke-linecap: butt; stroke-dashoffset: 0; stroke-linejoin: miter; stroke-miterlimit: 10; fill: none; fill-rule: nonzero; opacity: 1;"  x1="-567.4" y1="-327.6" x2="567.4" y2="327.6" />
</g>
		<g transform="matrix(1 0 0 1 105.3 -187.2)" id="Layer_1"  >
<line style="stroke: rgb(27,20,100); stroke-width: 0.75; stroke-dasharray: none; stroke-linecap: butt; stroke-dashoffset: 0; stroke-linejoin: miter; stroke-miterlimit: 10; fill: none; fill-rule: nonzero; opacity: 1;"  x1="-567.4" y1="-327.6" x2="567.4" y2="327.6" />
</g>
		<g transform="matrix(1 0 0 1 116.8 -206.55)" id="Layer_1"  >
<line style="stroke: rgb(27,20,100); stroke-width: 0.75; stroke-dasharray: none; stroke-linecap: butt; stroke-dashoffset: 0; stroke-linejoin: miter; stroke-miterlimit: 10; fill: none; fill-rule: nonzero; opacity: 1;"  x1="-567.4" y1="-327.55" x2="567.4" y2="327.55" />
</g>
		<g transform="matrix(1 0 0 1 128.4 -226)" id="Layer_1"  >
<line style="stroke: rgb(27,20,100); stroke-width: 0.75; stroke-dasharray: none; stroke-linecap: butt; stroke-dashoffset: 0; stroke-linejoin: miter; stroke-miterlimit: 10; fill: none; fill-rule: nonzero; opacity: 1;"  x1="-567.4" y1="-327.6" x2="567.4" y2="327.6" />
</g>
		<g transform="matrix(1 0 0 1 139.8 -245.35)" id="Layer_1"  >
<line style="stroke: rgb(27,20,100); stroke-width: 0.75; stroke-dasharray: none; stroke-linecap: butt; stroke-dashoffset: 0; stroke-linejoin: miter; stroke-miterlimit: 10; fill: none; fill-rule: nonzero; opacity: 1;"  x1="-567.4" y1="-327.54999999999995" x2="567.4" y2="327.54999999999995" />
</g>
		<g transform="matrix(1 0 0 1 151.4 -264.7)" id="Layer_1"  >
<line style="stroke: rgb(27,20,100); stroke-width: 0.75; stroke-dasharray: none; stroke-linecap: butt; stroke-dashoffset: 0; stroke-linejoin: miter; stroke-miterlimit: 10; fill: none; fill-rule: nonzero; opacity: 1;"  x1="-567.4" y1="-327.6" x2="567.4" y2="327.6" />
</g>
		<g transform="matrix(1 0 0 1 162.9 -284.1)" id="Layer_1"  >
<line style="stroke: rgb(27,20,100); stroke-width: 0.75; stroke-dasharray: none; stroke-linecap: butt; stroke-dashoffset: 0; stroke-linejoin: miter; stroke-miterlimit: 10; fill: none; fill-rule: nonzero; opacity: 1;"  x1="-567.4" y1="-327.6" x2="567.4" y2="327.6" />
</g>
		<g transform="matrix(1 0 0 1 174.5 -303.45)" id="Layer_1"  >
<line style="stroke: rgb(27,20,100); stroke-width: 0.75; stroke-dasharray: none; stroke-linecap: butt; stroke-dashoffset: 0; stroke-linejoin: miter; stroke-miterlimit: 10; fill: none; fill-rule: nonzero; opacity: 1;"  x1="-567.4000000000001" y1="-327.55" x2="567.4000000000001" y2="327.55" />
</g>
		<g transform="matrix(1 0 0 1 186 -322.8)" id="Layer_1"  >
<line style="stroke: rgb(27,20,100); stroke-width: 0.75; stroke-dasharray: none; stroke-linecap: butt; stroke-dashoffset: 0; stroke-linejoin: miter; stroke-miterlimit: 10; fill: none; fill-rule: nonzero; opacity: 1;"  x1="-567.4000000000001" y1="-327.6" x2="567.4000000000001" y2="327.6" />
</g>
		<g transform="matrix(1 0 0 1 197.5 -342.2)" id="Layer_1"  >
<line style="stroke: rgb(27,20,100); stroke-width: 0.75; stroke-dasharray: none; stroke-linecap: butt; stroke-dashoffset: 0; stroke-linejoin: miter; stroke-miterlimit: 10; fill: none; fill-rule: nonzero; opacity: 1;"  x1="-567.4000000000001" y1="-327.6" x2="567.4000000000001" y2="327.6" />
</g>
		<g transform="matrix(1 0 0 1 209.05 -361.55)" id="Layer_1"  >
<line style="stroke: rgb(27,20,100); stroke-width: 0.75; stroke-dasharray: none; stroke-linecap: butt; stroke-dashoffset: 0; stroke-linejoin: miter; stroke-miterlimit: 10; fill: none; fill-rule: nonzero; opacity: 1;"  x1="-567.45" y1="-327.55" x2="567.45" y2="327.55" />
</g>
		<g transform="matrix(1 0 0 1 220.6 -380.9)" id="Layer_1"  >
<line style="stroke: rgb(27,20,100); stroke-width: 0.75; stroke-dasharray: none; stroke-linecap: butt; stroke-dashoffset: 0; stroke-linejoin: miter; stroke-miterlimit: 10; fill: none; fill-rule: nonzero; opacity: 1;"  x1="-567.4" y1="-327.6" x2="567.4" y2="327.6" />
</g>
		<g transform="matrix(1 0 0 1 232.1 -400.3)" id="Layer_1"  >
<line style="stroke: rgb(27,20,100); stroke-width: 0.75; stroke-dasharray: none; stroke-linecap: butt; stroke-dashoffset: 0; stroke-linejoin: miter; stroke-miterlimit: 10; fill: none; fill-rule: nonzero; opacity: 1;"  x1="-567.4" y1="-327.6" x2="567.4" y2="327.6" />
</g>
		<g transform="matrix(1 0 0 1 237.9 396.3)" id="Layer_1"  >
<line style="stroke: rgb(27,20,100); stroke-width: 0.75; stroke-dasharray: none; stroke-linecap: butt; stroke-dashoffset: 0; stroke-linejoin: miter; stroke-miterlimit: 10; fill: none; fill-rule: nonzero; opacity: 1;"  x1="567.4" y1="-327.6" x2="-567.4" y2="327.6" />
</g>
		<g transform="matrix(1 0 0 1 226.4 376.9)" id="Layer_1"  >
<line style="stroke: rgb(27,20,100); stroke-width: 0.75; stroke-dasharray: none; stroke-linecap: butt; stroke-dashoffset: 0; stroke-linejoin: miter; stroke-miterlimit: 10; fill: none; fill-rule: nonzero; opacity: 1;"  x1="567.4" y1="-327.6" x2="-567.4" y2="327.6" />
</g>
		<g transform="matrix(1 0 0 1 214.8 357.55)" id="Layer_1"  >
<line style="stroke: rgb(27,20,100); stroke-width: 0.75; stroke-dasharray: none; stroke-linecap: butt; stroke-dashoffset: 0; stroke-linejoin: miter; stroke-miterlimit: 10; fill: none; fill-rule: nonzero; opacity: 1;"  x1="567.4" y1="-327.55" x2="-567.4" y2="327.55" />
</g>
		<g transform="matrix(1 0 0 1 203.3 338.2)" id="Layer_1"  >
<line style="stroke: rgb(27,20,100); stroke-width: 0.75; stroke-dasharray: none; stroke-linecap: butt; stroke-dashoffset: 0; stroke-linejoin: miter; stroke-miterlimit: 10; fill: none; fill-rule: nonzero; opacity: 1;"  x1="567.4" y1="-327.59999999999997" x2="-567.4" y2="327.59999999999997" />
</g>
		<g transform="matrix(1 0 0 1 191.7 318.8)" id="Layer_1"  >
<line style="stroke: rgb(27,20,100); stroke-width: 0.75; stroke-dasharray: none; stroke-linecap: butt; stroke-dashoffset: 0; stroke-linejoin: miter; stroke-miterlimit: 10; fill: none; fill-rule: nonzero; opacity: 1;"  x1="567.4" y1="-327.6" x2="-567.4" y2="327.6" />
</g>
		<g transform="matrix(1 0 0 1 180.3 299.45)" id="Layer_1"  >
<line style="stroke: rgb(27,20,100); stroke-width: 0.75; stroke-dasharray: none; stroke-linecap: butt; stroke-dashoffset: 0; stroke-linejoin: miter; stroke-miterlimit: 10; fill: none; fill-rule: nonzero; opacity: 1;"  x1="567.4" y1="-327.55" x2="-567.4" y2="327.55" />
</g>
		<g transform="matrix(1 0 0 1 168.7 280.1)" id="Layer_1"  >
<line style="stroke: rgb(27,20,100); stroke-width: 0.75; stroke-dasharray: none; stroke-linecap: butt; stroke-dashoffset: 0; stroke-linejoin: miter; stroke-miterlimit: 10; fill: none; fill-rule: nonzero; opacity: 1;"  x1="567.4" y1="-327.6" x2="-567.4" y2="327.6" />
</g>
		<g transform="matrix(1 0 0 1 157.2 260.7)" id="Layer_1"  >
<line style="stroke: rgb(27,20,100); stroke-width: 0.75; stroke-dasharray: none; stroke-linecap: butt; stroke-dashoffset: 0; stroke-linejoin: miter; stroke-miterlimit: 10; fill: none; fill-rule: nonzero; opacity: 1;"  x1="567.4" y1="-327.59999999999997" x2="-567.4" y2="327.59999999999997" />
</g>
		<g transform="matrix(1 0 0 1 145.6 241.35)" id="Layer_1"  >
<line style="stroke: rgb(27,20,100); stroke-width: 0.75; stroke-dasharray: none; stroke-linecap: butt; stroke-dashoffset: 0; stroke-linejoin: miter; stroke-miterlimit: 10; fill: none; fill-rule: nonzero; opacity: 1;"  x1="567.4" y1="-327.54999999999995" x2="-567.4" y2="327.54999999999995" />
</g>
		<g transform="matrix(1 0 0 1 134.1 222)" id="Layer_1"  >
<line style="stroke: rgb(27,20,100); stroke-width: 0.75; stroke-dasharray: none; stroke-linecap: butt; stroke-dashoffset: 0; stroke-linejoin: miter; stroke-miterlimit: 10; fill: none; fill-rule: nonzero; opacity: 1;"  x1="567.4" y1="-327.6" x2="-567.4" y2="327.6" />
</g>
		<g transform="matrix(1 0 0 1 122.6 202.55)" id="Layer_1"  >
<line style="stroke: rgb(27,20,100); stroke-width: 0.75; stroke-dasharray: none; stroke-linecap: butt; stroke-dashoffset: 0; stroke-linejoin: miter; stroke-miterlimit: 10; fill: none; fill-rule: nonzero; opacity: 1;"  x1="567.4" y1="-327.55" x2="-567.4" y2="327.55" />
</g>
		<g transform="matrix(1 0 0 1 111 183.2)" id="Layer_1"  >
<line style="stroke: rgb(27,20,100); stroke-width: 0.75; stroke-dasharray: none; stroke-linecap: butt; stroke-dashoffset: 0; stroke-linejoin: miter; stroke-miterlimit: 10; fill: none; fill-rule: nonzero; opacity: 1;"  x1="567.4000000000001" y1="-327.59999999999997" x2="-567.4000000000001" y2="327.59999999999997" />
</g>
		<g transform="matrix(1 0 0 1 99.5 163.9)" id="Layer_1"  >
<line style="stroke: rgb(27,20,100); stroke-width: 0.75; stroke-dasharray: none; stroke-linecap: butt; stroke-dashoffset: 0; stroke-linejoin: miter; stroke-miterlimit: 10; fill: none; fill-rule: nonzero; opacity: 1;"  x1="567.4000000000001" y1="-327.6" x2="-567.4000000000001" y2="327.6" />
</g>
		<g transform="matrix(1 0 0 1 88 144.45)" id="Layer_1"  >
<line style="stroke: rgb(27,20,100); stroke-width: 0.75; stroke-dasharray: none; stroke-linecap: butt; stroke-dashoffset: 0; stroke-linejoin: miter; stroke-miterlimit: 10; fill: none; fill-rule: nonzero; opacity: 1;"  x1="567.4000000000001" y1="-327.55" x2="-567.4000000000001" y2="327.55" />
</g>
		<g transform="matrix(1 0 0 1 76.5 125.1)" id="Layer_1"  >
<line style="stroke: rgb(27,20,100); stroke-width: 0.75; stroke-dasharray: none; stroke-linecap: butt; stroke-dashoffset: 0; stroke-linejoin: miter; stroke-miterlimit: 10; fill: none; fill-rule: nonzero; opacity: 1;"  x1="567.4000000000001" y1="-327.6" x2="-567.4000000000001" y2="327.6" />
</g>
		<g transform="matrix(1 0 0 1 64.9 105.8)" id="Layer_1"  >
<line style="stroke: rgb(27,20,100); stroke-width: 0.75; stroke-dasharray: none; stroke-linecap: butt; stroke-dashoffset: 0; stroke-linejoin: miter; stroke-miterlimit: 10; fill: none; fill-rule: nonzero; opacity: 1;"  x1="567.4" y1="-327.59999999999997" x2="-567.4" y2="327.59999999999997" />
</g>
		<g transform="matrix(1 0 0 1 53.4 86.35)" id="Layer_1"  >
<line style="stroke: rgb(27,20,100); stroke-width: 0.75; stroke-dasharray: none; stroke-linecap: butt; stroke-dashoffset: 0; stroke-linejoin: miter; stroke-miterlimit: 10; fill: none; fill-rule: nonzero; opacity: 1;"  x1="567.4" y1="-327.55" x2="-567.4" y2="327.55" />
</g>
		<g transform="matrix(1 0 0 1 41.9 67)" id="Layer_1"  >
<line style="stroke: rgb(27,20,100); stroke-width: 0.75; stroke-dasharray: none; stroke-linecap: butt; stroke-dashoffset: 0; stroke-linejoin: miter; stroke-miterlimit: 10; fill: none; fill-rule: nonzero; opacity: 1;"  x1="567.4" y1="-327.6" x2="-567.4" y2="327.6" />
</g>
		<g transform="matrix(1 0 0 1 30.3 47.65)" id="Layer_1"  >
<line style="stroke: rgb(27,20,100); stroke-width: 0.75; stroke-dasharray: none; stroke-linecap: butt; stroke-dashoffset: 0; stroke-linejoin: miter; stroke-miterlimit: 10; fill: none; fill-rule: nonzero; opacity: 1;"  x1="567.4" y1="-327.55" x2="-567.4" y2="327.55" />
</g>
		<g transform="matrix(1 0 0 1 18.8 28.2)" id="Layer_1"  >
<line style="stroke: rgb(27,20,100); stroke-width: 0.75; stroke-dasharray: none; stroke-linecap: butt; stroke-dashoffset: 0; stroke-linejoin: miter; stroke-miterlimit: 10; fill: none; fill-rule: nonzero; opacity: 1;"  x1="567.4" y1="-327.59999999999997" x2="-567.4" y2="327.59999999999997" />
</g>
		<g transform="matrix(1 0 0 1 7.25 8.9)" id="Layer_1"  >
<line style="stroke: rgb(27,20,100); stroke-width: 0.75; stroke-dasharray: none; stroke-linecap: butt; stroke-dashoffset: 0; stroke-linejoin: miter; stroke-miterlimit: 10; fill: none; fill-rule: nonzero; opacity: 1;"  x1="567.45" y1="-327.6" x2="-567.45" y2="327.6" />
</g>
		<g transform="matrix(1 0 0 1 -4.2 -10.45)" id="Layer_1"  >
<line style="stroke: rgb(27,20,100); stroke-width: 0.75; stroke-dasharray: none; stroke-linecap: butt; stroke-dashoffset: 0; stroke-linejoin: miter; stroke-miterlimit: 10; fill: none; fill-rule: nonzero; opacity: 1;"  x1="567.4" y1="-327.55" x2="-567.4" y2="327.55" />
</g>
		<g transform="matrix(1 0 0 1 -15.8 -29.9)" id="Layer_1"  >
<line style="stroke: rgb(27,20,100); stroke-width: 0.75; stroke-dasharray: none; stroke-linecap: butt; stroke-dashoffset: 0; stroke-linejoin: miter; stroke-miterlimit: 10; fill: none; fill-rule: nonzero; opacity: 1;"  x1="567.4" y1="-327.6" x2="-567.4" y2="327.6" />
</g>
		<g transform="matrix(1 0 0 1 -27.3 -49.2)" id="Layer_1"  >
<line style="stroke: rgb(27,20,100); stroke-width: 0.75; stroke-dasharray: none; stroke-linecap: butt; stroke-dashoffset: 0; stroke-linejoin: miter; stroke-miterlimit: 10; fill: none; fill-rule: nonzero; opacity: 1;"  x1="567.4" y1="-327.59999999999997" x2="-567.4" y2="327.59999999999997" />
</g>
		<g transform="matrix(1 0 0 1 -38.9 -68.55)" id="Layer_1"  >
<line style="stroke: rgb(27,20,100); stroke-width: 0.75; stroke-dasharray: none; stroke-linecap: butt; stroke-dashoffset: 0; stroke-linejoin: miter; stroke-miterlimit: 10; fill: none; fill-rule: nonzero; opacity: 1;"  x1="567.4" y1="-327.55" x2="-567.4" y2="327.55" />
</g>
		<g transform="matrix(1 0 0 1 -50.3 -88)" id="Layer_1"  >
<line style="stroke: rgb(27,20,100); stroke-width: 0.75; stroke-dasharray: none; stroke-linecap: butt; stroke-dashoffset: 0; stroke-linejoin: miter; stroke-miterlimit: 10; fill: none; fill-rule: nonzero; opacity: 1;"  x1="567.4" y1="-327.6" x2="-567.4" y2="327.6" />
</g>
		<g transform="matrix(1 0 0 1 -61.9 -107.35)" id="Layer_1"  >
<line style="stroke: rgb(27,20,100); stroke-width: 0.75; stroke-dasharray: none; stroke-linecap: butt; stroke-dashoffset: 0; stroke-linejoin: miter; stroke-miterlimit: 10; fill: none; fill-rule: nonzero; opacity: 1;"  x1="567.4" y1="-327.55" x2="-567.4" y2="327.55" />
</g>
		<g transform="matrix(1 0 0 1 -73.4 -126.7)" id="Layer_1"  >
<line style="stroke: rgb(27,20,100); stroke-width: 0.75; stroke-dasharray: none; stroke-linecap: butt; stroke-dashoffset: 0; stroke-linejoin: miter; stroke-miterlimit: 10; fill: none; fill-rule: nonzero; opacity: 1;"  x1="567.4" y1="-327.6" x2="-567.4" y2="327.6" />
</g>
		<g transform="matrix(1 0 0 1 -85 -146.1)" id="Layer_1"  >
<line style="stroke: rgb(27,20,100); stroke-width: 0.75; stroke-dasharray: none; stroke-linecap: butt; stroke-dashoffset: 0; stroke-linejoin: miter; stroke-miterlimit: 10; fill: none; fill-rule: nonzero; opacity: 1;"  x1="567.4" y1="-327.6" x2="-567.4" y2="327.6" />
</g>
		<g transform="matrix(1 0 0 1 -96.5 -165.45)" id="Layer_1"  >
<line style="stroke: rgb(27,20,100); stroke-width: 0.75; stroke-dasharray: none; stroke-linecap: butt; stroke-dashoffset: 0; stroke-linejoin: miter; stroke-miterlimit: 10; fill: none; fill-rule: nonzero; opacity: 1;"  x1="567.4" y1="-327.55" x2="-567.4" y2="327.55" />
</g>
		<g transform="matrix(1 0 0 1 -108 -184.8)" id="Layer_1"  >
<line style="stroke: rgb(27,20,100); stroke-width: 0.75; stroke-dasharray: none; stroke-linecap: butt; stroke-dashoffset: 0; stroke-linejoin: miter; stroke-miterlimit: 10; fill: none; fill-rule: nonzero; opacity: 1;"  x1="567.4" y1="-327.6" x2="-567.4" y2="327.6" />
</g>
		<g transform="matrix(1 0 0 1 -119.6 -204.2)" id="Layer_1"  >
<line style="stroke: rgb(27,20,100); stroke-width: 0.75; stroke-dasharray: none; stroke-linecap: butt; stroke-dashoffset: 0; stroke-linejoin: miter; stroke-miterlimit: 10; fill: none; fill-rule: nonzero; opacity: 1;"  x1="567.4" y1="-327.6" x2="-567.4" y2="327.6" />
</g>
		<g transform="matrix(1 0 0 1 -131.1 -223.55)" id="Layer_1"  >
<line style="stroke: rgb(27,20,100); stroke-width: 0.75; stroke-dasharray: none; stroke-linecap: butt; stroke-dashoffset: 0; stroke-linejoin: miter; stroke-miterlimit: 10; fill: none; fill-rule: nonzero; opacity: 1;"  x1="567.4" y1="-327.55" x2="-567.4" y2="327.55" />
</g>
		<g transform="matrix(1 0 0 1 -142.6 -242.9)" id="Layer_1"  >
<line style="stroke: rgb(27,20,100); stroke-width: 0.75; stroke-dasharray: none; stroke-linecap: butt; stroke-dashoffset: 0; stroke-linejoin: miter; stroke-miterlimit: 10; fill: none; fill-rule: nonzero; opacity: 1;"  x1="567.4" y1="-327.6" x2="-567.4" y2="327.6" />
</g>
		<g transform="matrix(1 0 0 1 -154.1 -262.3)" id="Layer_1"  >
<line style="stroke: rgb(27,20,100); stroke-width: 0.75; stroke-dasharray: none; stroke-linecap: butt; stroke-dashoffset: 0; stroke-linejoin: miter; stroke-miterlimit: 10; fill: none; fill-rule: nonzero; opacity: 1;"  x1="567.4" y1="-327.6" x2="-567.4" y2="327.6" />
</g>
		<g transform="matrix(1 0 0 1 -165.7 -281.7)" id="Layer_1"  >
<line style="stroke: rgb(27,20,100); stroke-width: 0.75; stroke-dasharray: none; stroke-linecap: butt; stroke-dashoffset: 0; stroke-linejoin: miter; stroke-miterlimit: 10; fill: none; fill-rule: nonzero; opacity: 1;"  x1="567.4000000000001" y1="-327.6" x2="-567.4000000000001" y2="327.6" />
</g>
		<g transform="matrix(1 0 0 1 -177.2 -301)" id="Layer_1"  >
<line style="stroke: rgb(27,20,100); stroke-width: 0.75; stroke-dasharray: none; stroke-linecap: butt; stroke-dashoffset: 0; stroke-linejoin: miter; stroke-miterlimit: 10; fill: none; fill-rule: nonzero; opacity: 1;"  x1="567.4000000000001" y1="-327.6" x2="-567.4000000000001" y2="327.6" />
</g>
		<g transform="matrix(1 0 0 1 -188.7 -320.4)" id="Layer_1"  >
<line style="stroke: rgb(27,20,100); stroke-width: 0.75; stroke-dasharray: none; stroke-linecap: butt; stroke-dashoffset: 0; stroke-linejoin: miter; stroke-miterlimit: 10; fill: none; fill-rule: nonzero; opacity: 1;"  x1="567.4000000000001" y1="-327.6" x2="-567.4000000000001" y2="327.6" />
</g>
		<g transform="matrix(1 0 0 1 -200.3 -339.8)" id="Layer_1"  >
<line style="stroke: rgb(27,20,100); stroke-width: 0.75; stroke-dasharray: none; stroke-linecap: butt; stroke-dashoffset: 0; stroke-linejoin: miter; stroke-miterlimit: 10; fill: none; fill-rule: nonzero; opacity: 1;"  x1="567.4" y1="-327.6" x2="-567.4" y2="327.6" />
</g>
		<g transform="matrix(1 0 0 1 -211.8 -359.1)" id="Layer_1"  >
<line style="stroke: rgb(27,20,100); stroke-width: 0.75; stroke-dasharray: none; stroke-linecap: butt; stroke-dashoffset: 0; stroke-linejoin: miter; stroke-miterlimit: 10; fill: none; fill-rule: nonzero; opacity: 1;"  x1="567.4" y1="-327.6" x2="-567.4" y2="327.6" />
</g>
		<g transform="matrix(1 0 0 1 -223.35 -378.5)" id="Layer_1"  >
<line style="stroke: rgb(27,20,100); stroke-width: 0.75; stroke-dasharray: none; stroke-linecap: butt; stroke-dashoffset: 0; stroke-linejoin: miter; stroke-miterlimit: 10; fill: none; fill-rule: nonzero; opacity: 1;"  x1="567.45" y1="-327.6" x2="-567.45" y2="327.6" />
</g>
		<g transform="matrix(1 0 0 1 -234.8 -397.9)" id="Layer_1"  >
<line style="stroke: rgb(27,20,100); stroke-width: 0.75; stroke-dasharray: none; stroke-linecap: butt; stroke-dashoffset: 0; stroke-linejoin: miter; stroke-miterlimit: 10; fill: none; fill-rule: nonzero; opacity: 1;"  x1="567.4" y1="-327.6" x2="-567.4" y2="327.6" />
</g>
</g>
</g>
</svg>